<?xml version="1.0" encoding="UTF-8" standalone="no"?>
<!DOCTYPE svg PUBLIC "-//W3C//DTD SVG 1.1//EN"
 "http://www.w3.org/Graphics/SVG/1.1/DTD/svg11.dtd">
<!-- Generated by graphviz version 2.43.0 (0)
 -->
<!-- Title: %3 Pages: 1 -->
<svg width="1836pt" height="1484pt"
 viewBox="0.00 0.00 1836.00 1484.00" xmlns="http://www.w3.org/2000/svg" xmlns:xlink="http://www.w3.org/1999/xlink">
<g id="graph0" class="graph" transform="scale(1 1) rotate(0) translate(4 1480)">
<title>%3</title>
<polygon fill="white" stroke="transparent" points="-4,4 -4,-1480 1832,-1480 1832,4 -4,4"/>
<!-- bc -->
<g id="node1" class="node">
<title>bc</title>
<ellipse fill="none" stroke="red" cx="334" cy="-1458" rx="27" ry="18"/>
<text text-anchor="middle" x="334" y="-1454.3" font-family="Times,serif" font-size="14.00">bc</text>
</g>
<!-- cd -->
<g id="node5" class="node">
<title>cd</title>
<ellipse fill="none" stroke="red" cx="260" cy="-1386" rx="27" ry="18"/>
<text text-anchor="middle" x="260" y="-1382.3" font-family="Times,serif" font-size="14.00">cd</text>
</g>
<!-- bc&#45;&gt;cd -->
<g id="edge1" class="edge">
<title>bc&#45;&gt;cd</title>
<path fill="none" stroke="black" d="M319.02,-1442.83C308.49,-1432.87 294.22,-1419.37 282.34,-1408.14"/>
<polygon fill="black" stroke="black" points="284.62,-1405.47 274.95,-1401.14 279.81,-1410.56 284.62,-1405.47"/>
</g>
<!-- gr -->
<g id="node18" class="node">
<title>gr</title>
<ellipse fill="none" stroke="blue" cx="224" cy="-1170" rx="27" ry="18"/>
<text text-anchor="middle" x="224" y="-1166.3" font-family="Times,serif" font-size="14.00">gr</text>
</g>
<!-- bc&#45;&gt;gr -->
<g id="edge2" class="edge">
<title>bc&#45;&gt;gr</title>
<path fill="none" stroke="black" d="M337.54,-1440.14C345.14,-1399.37 358.93,-1293.7 315,-1224 302.01,-1203.4 277.91,-1189.89 257.76,-1181.66"/>
<polygon fill="black" stroke="black" points="258.85,-1178.33 248.26,-1178.04 256.36,-1184.87 258.85,-1178.33"/>
</g>
<!-- bd -->
<g id="node2" class="node">
<title>bd</title>
<ellipse fill="none" stroke="red" cx="1672" cy="-306" rx="27" ry="18"/>
<text text-anchor="middle" x="1672" y="-302.3" font-family="Times,serif" font-size="14.00">bd</text>
</g>
<!-- lz -->
<g id="node29" class="node">
<title>lz</title>
<ellipse fill="none" stroke="blue" cx="1598" cy="-810" rx="27" ry="18"/>
<text text-anchor="middle" x="1598" y="-806.3" font-family="Times,serif" font-size="14.00">lz</text>
</g>
<!-- bd&#45;&gt;lz -->
<g id="edge3" class="edge">
<title>bd&#45;&gt;lz</title>
<path fill="none" stroke="black" d="M1647.04,-313.2C1595.9,-327.56 1484,-368.22 1484,-449 1484,-595 1484,-595 1484,-595 1484,-635.45 1486.25,-647.18 1503,-684 1519.56,-720.41 1532.76,-724.18 1557,-756 1564.45,-765.78 1572.73,-776.51 1579.89,-785.75"/>
<polygon fill="black" stroke="black" points="1577.2,-787.99 1586.1,-793.74 1582.73,-783.69 1577.2,-787.99"/>
</g>
<!-- vm -->
<g id="node52" class="node">
<title>vm</title>
<ellipse fill="none" stroke="red" cx="1718" cy="-234" rx="27" ry="18"/>
<text text-anchor="middle" x="1718" y="-230.3" font-family="Times,serif" font-size="14.00">vm</text>
</g>
<!-- bd&#45;&gt;vm -->
<g id="edge4" class="edge">
<title>bd&#45;&gt;vm</title>
<path fill="none" stroke="black" d="M1682.44,-289.12C1688.2,-280.34 1695.48,-269.26 1701.96,-259.42"/>
<polygon fill="black" stroke="black" points="1705.04,-261.1 1707.6,-250.82 1699.19,-257.26 1705.04,-261.1"/>
</g>
<!-- br -->
<g id="node3" class="node">
<title>br</title>
<ellipse fill="none" stroke="red" cx="1615" cy="-522" rx="27" ry="18"/>
<text text-anchor="middle" x="1615" y="-518.3" font-family="Times,serif" font-size="14.00">br</text>
</g>
<!-- br&#45;&gt;lz -->
<g id="edge5" class="edge">
<title>br&#45;&gt;lz</title>
<path fill="none" stroke="black" d="M1614.82,-540.07C1614.58,-557.99 1614.06,-586.98 1613,-612 1610.28,-676.07 1609.61,-692.12 1604,-756 1603.26,-764.43 1602.28,-773.6 1601.33,-781.9"/>
<polygon fill="black" stroke="black" points="1597.86,-781.5 1600.16,-791.84 1604.81,-782.31 1597.86,-781.5"/>
</g>
<!-- qh -->
<g id="node37" class="node">
<title>qh</title>
<ellipse fill="none" stroke="red" cx="1653" cy="-450" rx="27" ry="18"/>
<text text-anchor="middle" x="1653" y="-446.3" font-family="Times,serif" font-size="14.00">qh</text>
</g>
<!-- br&#45;&gt;qh -->
<g id="edge6" class="edge">
<title>br&#45;&gt;qh</title>
<path fill="none" stroke="black" d="M1623.81,-504.76C1628.42,-496.28 1634.16,-485.71 1639.32,-476.2"/>
<polygon fill="black" stroke="black" points="1642.54,-477.61 1644.23,-467.15 1636.39,-474.27 1642.54,-477.61"/>
</g>
<!-- broadcaster -->
<g id="node4" class="node">
<title>broadcaster</title>
<ellipse fill="none" stroke="red" cx="993" cy="-1170" rx="66.09" ry="18"/>
<text text-anchor="middle" x="993" y="-1166.3" font-family="Times,serif" font-size="14.00">broadcaster</text>
</g>
<!-- gt -->
<g id="node19" class="node">
<title>gt</title>
<ellipse fill="none" stroke="red" cx="1077" cy="-1098" rx="27" ry="18"/>
<text text-anchor="middle" x="1077" y="-1094.3" font-family="Times,serif" font-size="14.00">gt</text>
</g>
<!-- broadcaster&#45;&gt;gt -->
<g id="edge10" class="edge">
<title>broadcaster&#45;&gt;gt</title>
<path fill="none" stroke="black" d="M1012.48,-1152.76C1024.49,-1142.76 1039.98,-1129.85 1052.78,-1119.19"/>
<polygon fill="black" stroke="black" points="1055.29,-1121.65 1060.73,-1112.56 1050.81,-1116.27 1055.29,-1121.65"/>
</g>
<!-- pc -->
<g id="node33" class="node">
<title>pc</title>
<ellipse fill="none" stroke="red" cx="909" cy="-1098" rx="27" ry="18"/>
<text text-anchor="middle" x="909" y="-1094.3" font-family="Times,serif" font-size="14.00">pc</text>
</g>
<!-- broadcaster&#45;&gt;pc -->
<g id="edge7" class="edge">
<title>broadcaster&#45;&gt;pc</title>
<path fill="none" stroke="black" d="M973.52,-1152.76C961.51,-1142.76 946.02,-1129.85 933.22,-1119.19"/>
<polygon fill="black" stroke="black" points="935.19,-1116.27 925.27,-1112.56 930.71,-1121.65 935.19,-1116.27"/>
</g>
<!-- qf -->
<g id="node36" class="node">
<title>qf</title>
<ellipse fill="none" stroke="red" cx="1571" cy="-1098" rx="27" ry="18"/>
<text text-anchor="middle" x="1571" y="-1094.3" font-family="Times,serif" font-size="14.00">qf</text>
</g>
<!-- broadcaster&#45;&gt;qf -->
<g id="edge9" class="edge">
<title>broadcaster&#45;&gt;qf</title>
<path fill="none" stroke="black" d="M1052.14,-1161.84C1171.37,-1147.4 1437.5,-1115.17 1534.62,-1103.41"/>
<polygon fill="black" stroke="black" points="1535.05,-1106.88 1544.55,-1102.2 1534.2,-1099.93 1535.05,-1106.88"/>
</g>
<!-- sg -->
<g id="node45" class="node">
<title>sg</title>
<ellipse fill="none" stroke="red" cx="317" cy="-1098" rx="27" ry="18"/>
<text text-anchor="middle" x="317" y="-1094.3" font-family="Times,serif" font-size="14.00">sg</text>
</g>
<!-- broadcaster&#45;&gt;sg -->
<g id="edge8" class="edge">
<title>broadcaster&#45;&gt;sg</title>
<path fill="none" stroke="black" d="M932.12,-1162.7C794.72,-1148.47 464,-1114.22 353.58,-1102.79"/>
<polygon fill="black" stroke="black" points="353.91,-1099.3 343.6,-1101.75 353.19,-1106.27 353.91,-1099.3"/>
</g>
<!-- gg -->
<g id="node15" class="node">
<title>gg</title>
<ellipse fill="none" stroke="red" cx="260" cy="-1314" rx="27" ry="18"/>
<text text-anchor="middle" x="260" y="-1310.3" font-family="Times,serif" font-size="14.00">gg</text>
</g>
<!-- cd&#45;&gt;gg -->
<g id="edge11" class="edge">
<title>cd&#45;&gt;gg</title>
<path fill="none" stroke="black" d="M260,-1367.7C260,-1359.98 260,-1350.71 260,-1342.11"/>
<polygon fill="black" stroke="black" points="263.5,-1342.1 260,-1332.1 256.5,-1342.1 263.5,-1342.1"/>
</g>
<!-- cd&#45;&gt;gr -->
<g id="edge12" class="edge">
<title>cd&#45;&gt;gr</title>
<path fill="none" stroke="black" d="M246.25,-1370.07C238.04,-1360.1 228.38,-1346.25 224,-1332 210.05,-1286.63 214.61,-1230.62 219.26,-1198.04"/>
<polygon fill="black" stroke="black" points="222.75,-1198.35 220.81,-1187.94 215.83,-1197.29 222.75,-1198.35"/>
</g>
<!-- cf -->
<g id="node6" class="node">
<title>cf</title>
<ellipse fill="none" stroke="red" cx="731" cy="-306" rx="27" ry="18"/>
<text text-anchor="middle" x="731" y="-302.3" font-family="Times,serif" font-size="14.00">cf</text>
</g>
<!-- vc -->
<g id="node51" class="node">
<title>vc</title>
<ellipse fill="none" stroke="blue" cx="704" cy="-234" rx="27" ry="18"/>
<text text-anchor="middle" x="704" y="-230.3" font-family="Times,serif" font-size="14.00">vc</text>
</g>
<!-- cf&#45;&gt;vc -->
<g id="edge13" class="edge">
<title>cf&#45;&gt;vc</title>
<path fill="none" stroke="black" d="M724.6,-288.41C721.49,-280.34 717.67,-270.43 714.17,-261.35"/>
<polygon fill="black" stroke="black" points="717.4,-260.03 710.54,-251.96 710.87,-262.55 717.4,-260.03"/>
</g>
<!-- cq -->
<g id="node7" class="node">
<title>cq</title>
<ellipse fill="none" stroke="red" cx="1315" cy="-306" rx="27" ry="18"/>
<text text-anchor="middle" x="1315" y="-302.3" font-family="Times,serif" font-size="14.00">cq</text>
</g>
<!-- db -->
<g id="node8" class="node">
<title>db</title>
<ellipse fill="none" stroke="blue" cx="1161" cy="-1026" rx="27" ry="18"/>
<text text-anchor="middle" x="1161" y="-1022.3" font-family="Times,serif" font-size="14.00">db</text>
</g>
<!-- cq&#45;&gt;db -->
<g id="edge15" class="edge">
<title>cq&#45;&gt;db</title>
<path fill="none" stroke="black" d="M1318.36,-323.97C1323.31,-350.52 1332,-403.56 1332,-449 1332,-883 1332,-883 1332,-883 1332,-953.58 1244.71,-995.79 1194.87,-1014.14"/>
<polygon fill="black" stroke="black" points="1193.39,-1010.95 1185.14,-1017.6 1195.73,-1017.55 1193.39,-1010.95"/>
</g>
<!-- hf -->
<g id="node20" class="node">
<title>hf</title>
<ellipse fill="none" stroke="red" cx="1334" cy="-234" rx="27" ry="18"/>
<text text-anchor="middle" x="1334" y="-230.3" font-family="Times,serif" font-size="14.00">hf</text>
</g>
<!-- cq&#45;&gt;hf -->
<g id="edge14" class="edge">
<title>cq&#45;&gt;hf</title>
<path fill="none" stroke="black" d="M1319.6,-288.05C1321.75,-280.14 1324.35,-270.54 1326.76,-261.69"/>
<polygon fill="black" stroke="black" points="1330.2,-262.36 1329.44,-251.79 1323.45,-260.52 1330.2,-262.36"/>
</g>
<!-- db&#45;&gt;gt -->
<g id="edge17" class="edge">
<title>db&#45;&gt;gt</title>
<path fill="none" stroke="black" d="M1148.53,-1042.11C1136.93,-1052.89 1119.6,-1067.42 1104.81,-1078.82"/>
<polygon fill="black" stroke="black" points="1102.34,-1076.31 1096.47,-1085.13 1106.56,-1081.89 1102.34,-1076.31"/>
</g>
<!-- hh -->
<g id="node21" class="node">
<title>hh</title>
<ellipse fill="none" stroke="blue" cx="1297" cy="-162" rx="27" ry="18"/>
<text text-anchor="middle" x="1297" y="-158.3" font-family="Times,serif" font-size="14.00">hh</text>
</g>
<!-- db&#45;&gt;hh -->
<g id="edge20" class="edge">
<title>db&#45;&gt;hh</title>
<path fill="none" stroke="black" d="M1187.43,-1022.29C1251.15,-1014.16 1408,-983.91 1408,-883 1408,-883 1408,-883 1408,-305 1408,-261.99 1396.82,-249.63 1370,-216 1358.11,-201.09 1341.02,-188.38 1326.37,-179.14"/>
<polygon fill="black" stroke="black" points="1327.99,-176.04 1317.63,-173.85 1324.37,-182.02 1327.99,-176.04"/>
</g>
<!-- np -->
<g id="node31" class="node">
<title>np</title>
<ellipse fill="none" stroke="red" cx="1182" cy="-594" rx="27" ry="18"/>
<text text-anchor="middle" x="1182" y="-590.3" font-family="Times,serif" font-size="14.00">np</text>
</g>
<!-- db&#45;&gt;np -->
<g id="edge16" class="edge">
<title>db&#45;&gt;np</title>
<path fill="none" stroke="black" d="M1145.79,-1011.12C1134.67,-1000.71 1119.41,-985.93 1107,-972 1054.48,-913.07 1032,-889.94 1032,-811 1032,-811 1032,-811 1032,-737 1032,-672.52 1106,-628.57 1150.05,-608.11"/>
<polygon fill="black" stroke="black" points="1151.53,-611.28 1159.22,-603.99 1148.66,-604.9 1151.53,-611.28"/>
</g>
<!-- ns -->
<g id="node32" class="node">
<title>ns</title>
<ellipse fill="none" stroke="red" cx="1087" cy="-882" rx="27" ry="18"/>
<text text-anchor="middle" x="1087" y="-878.3" font-family="Times,serif" font-size="14.00">ns</text>
</g>
<!-- db&#45;&gt;ns -->
<g id="edge19" class="edge">
<title>db&#45;&gt;ns</title>
<path fill="none" stroke="black" d="M1150.35,-1009.07C1143.61,-998.71 1134.89,-984.79 1128,-972 1116.83,-951.28 1105.76,-926.95 1097.94,-908.98"/>
<polygon fill="black" stroke="black" points="1101.12,-907.51 1093.95,-899.71 1094.69,-910.27 1101.12,-907.51"/>
</g>
<!-- rt -->
<g id="node42" class="node">
<title>rt</title>
<ellipse fill="none" stroke="red" cx="1011" cy="-954" rx="27" ry="18"/>
<text text-anchor="middle" x="1011" y="-950.3" font-family="Times,serif" font-size="14.00">rt</text>
</g>
<!-- db&#45;&gt;rt -->
<g id="edge21" class="edge">
<title>db&#45;&gt;rt</title>
<path fill="none" stroke="black" d="M1139.51,-1014.97C1113.89,-1003.02 1070.89,-982.95 1041.76,-969.35"/>
<polygon fill="black" stroke="black" points="1042.99,-966.07 1032.45,-965.01 1040.03,-972.41 1042.99,-966.07"/>
</g>
<!-- zj -->
<g id="node59" class="node">
<title>zj</title>
<ellipse fill="none" stroke="red" cx="1201" cy="-450" rx="27" ry="18"/>
<text text-anchor="middle" x="1201" y="-446.3" font-family="Times,serif" font-size="14.00">zj</text>
</g>
<!-- db&#45;&gt;zj -->
<g id="edge18" class="edge">
<title>db&#45;&gt;zj</title>
<path fill="none" stroke="black" d="M1133.82,-1025.46C1093.14,-1024.6 1016.73,-1016.64 975,-972 947.38,-942.45 956,-923.45 956,-883 956,-883 956,-883 956,-593 956,-497.84 1096.07,-465.4 1164.39,-455.24"/>
<polygon fill="black" stroke="black" points="1164.9,-458.7 1174.31,-453.84 1163.92,-451.77 1164.9,-458.7"/>
</g>
<!-- dg -->
<g id="node9" class="node">
<title>dg</title>
<ellipse fill="none" stroke="red" cx="769" cy="-594" rx="27" ry="18"/>
<text text-anchor="middle" x="769" y="-590.3" font-family="Times,serif" font-size="14.00">dg</text>
</g>
<!-- rv -->
<g id="node43" class="node">
<title>rv</title>
<ellipse fill="none" stroke="red" cx="674" cy="-522" rx="27" ry="18"/>
<text text-anchor="middle" x="674" y="-518.3" font-family="Times,serif" font-size="14.00">rv</text>
</g>
<!-- dg&#45;&gt;rv -->
<g id="edge22" class="edge">
<title>dg&#45;&gt;rv</title>
<path fill="none" stroke="black" d="M751.58,-580.16C737.07,-569.47 716.21,-554.1 699.77,-541.99"/>
<polygon fill="black" stroke="black" points="701.76,-539.11 691.64,-535.99 697.61,-544.74 701.76,-539.11"/>
</g>
<!-- dk -->
<g id="node10" class="node">
<title>dk</title>
<ellipse fill="none" stroke="red" cx="1463" cy="-738" rx="27" ry="18"/>
<text text-anchor="middle" x="1463" y="-734.3" font-family="Times,serif" font-size="14.00">dk</text>
</g>
<!-- xl -->
<g id="node55" class="node">
<title>xl</title>
<ellipse fill="none" stroke="red" cx="1539" cy="-666" rx="27" ry="18"/>
<text text-anchor="middle" x="1539" y="-662.3" font-family="Times,serif" font-size="14.00">xl</text>
</g>
<!-- dk&#45;&gt;xl -->
<g id="edge23" class="edge">
<title>dk&#45;&gt;xl</title>
<path fill="none" stroke="black" d="M1478.38,-722.83C1489.2,-712.87 1503.86,-699.37 1516.05,-688.14"/>
<polygon fill="black" stroke="black" points="1518.66,-690.49 1523.64,-681.14 1513.92,-685.34 1518.66,-690.49"/>
</g>
<!-- ds -->
<g id="node11" class="node">
<title>ds</title>
<ellipse fill="none" stroke="red" cx="1463" cy="-882" rx="27" ry="18"/>
<text text-anchor="middle" x="1463" y="-878.3" font-family="Times,serif" font-size="14.00">ds</text>
</g>
<!-- ds&#45;&gt;dk -->
<g id="edge24" class="edge">
<title>ds&#45;&gt;dk</title>
<path fill="none" stroke="black" d="M1463,-863.87C1463,-839.67 1463,-795.21 1463,-766.39"/>
<polygon fill="black" stroke="black" points="1466.5,-766.19 1463,-756.19 1459.5,-766.19 1466.5,-766.19"/>
</g>
<!-- ds&#45;&gt;lz -->
<g id="edge25" class="edge">
<title>ds&#45;&gt;lz</title>
<path fill="none" stroke="black" d="M1483.8,-870.22C1506.46,-858.47 1542.89,-839.57 1568.5,-826.3"/>
<polygon fill="black" stroke="black" points="1570.13,-829.39 1577.4,-821.68 1566.91,-823.18 1570.13,-829.39"/>
</g>
<!-- dt -->
<g id="node12" class="node">
<title>dt</title>
<ellipse fill="none" stroke="blue" cx="1801" cy="-522" rx="27" ry="18"/>
<text text-anchor="middle" x="1801" y="-518.3" font-family="Times,serif" font-size="14.00">dt</text>
</g>
<!-- lv -->
<g id="node28" class="node">
<title>lv</title>
<ellipse fill="none" stroke="blue" cx="1038" cy="-90" rx="27" ry="18"/>
<text text-anchor="middle" x="1038" y="-86.3" font-family="Times,serif" font-size="14.00">lv</text>
</g>
<!-- dt&#45;&gt;lv -->
<g id="edge26" class="edge">
<title>dt&#45;&gt;lv</title>
<path fill="none" stroke="black" d="M1799.22,-503.97C1796.6,-477.34 1792,-424.21 1792,-379 1792,-379 1792,-379 1792,-233 1792,-159.18 1226.62,-106.73 1075.02,-93.99"/>
<polygon fill="black" stroke="black" points="1075.09,-90.49 1064.84,-93.14 1074.51,-97.46 1075.09,-90.49"/>
</g>
<!-- fk -->
<g id="node13" class="node">
<title>fk</title>
<ellipse fill="none" stroke="red" cx="522" cy="-954" rx="27" ry="18"/>
<text text-anchor="middle" x="522" y="-950.3" font-family="Times,serif" font-size="14.00">fk</text>
</g>
<!-- tv -->
<g id="node50" class="node">
<title>tv</title>
<ellipse fill="none" stroke="red" cx="541" cy="-882" rx="27" ry="18"/>
<text text-anchor="middle" x="541" y="-878.3" font-family="Times,serif" font-size="14.00">tv</text>
</g>
<!-- fk&#45;&gt;tv -->
<g id="edge27" class="edge">
<title>fk&#45;&gt;tv</title>
<path fill="none" stroke="black" d="M526.6,-936.05C528.75,-928.14 531.35,-918.54 533.76,-909.69"/>
<polygon fill="black" stroke="black" points="537.2,-910.36 536.44,-899.79 530.45,-908.52 537.2,-910.36"/>
</g>
<!-- fk&#45;&gt;vc -->
<g id="edge28" class="edge">
<title>fk&#45;&gt;vc</title>
<path fill="none" stroke="black" d="M514.89,-936.3C504.4,-910.11 486,-857.54 486,-811 486,-811 486,-811 486,-377 486,-332.06 499.32,-316.58 534,-288 572.49,-256.28 629.98,-243.49 667.24,-238.37"/>
<polygon fill="black" stroke="black" points="667.7,-241.84 677.18,-237.12 666.82,-234.9 667.7,-241.84"/>
</g>
<!-- fs -->
<g id="node14" class="node">
<title>fs</title>
<ellipse fill="none" stroke="red" cx="169" cy="-1026" rx="27" ry="18"/>
<text text-anchor="middle" x="169" y="-1022.3" font-family="Times,serif" font-size="14.00">fs</text>
</g>
<!-- tp -->
<g id="node49" class="node">
<title>tp</title>
<ellipse fill="none" stroke="red" cx="131" cy="-954" rx="27" ry="18"/>
<text text-anchor="middle" x="131" y="-950.3" font-family="Times,serif" font-size="14.00">tp</text>
</g>
<!-- fs&#45;&gt;tp -->
<g id="edge29" class="edge">
<title>fs&#45;&gt;tp</title>
<path fill="none" stroke="black" d="M160.19,-1008.76C155.58,-1000.28 149.84,-989.71 144.68,-980.2"/>
<polygon fill="black" stroke="black" points="147.61,-978.27 139.77,-971.15 141.46,-981.61 147.61,-978.27"/>
</g>
<!-- gg&#45;&gt;gr -->
<g id="edge31" class="edge">
<title>gg&#45;&gt;gr</title>
<path fill="none" stroke="black" d="M254.21,-1296.42C250.7,-1286.03 246.28,-1272.33 243,-1260 237.54,-1239.52 232.59,-1216.06 229.11,-1198.37"/>
<polygon fill="black" stroke="black" points="232.47,-1197.34 227.14,-1188.18 225.6,-1198.66 232.47,-1197.34"/>
</g>
<!-- rq -->
<g id="node41" class="node">
<title>rq</title>
<ellipse fill="none" stroke="red" cx="279" cy="-1242" rx="27" ry="18"/>
<text text-anchor="middle" x="279" y="-1238.3" font-family="Times,serif" font-size="14.00">rq</text>
</g>
<!-- gg&#45;&gt;rq -->
<g id="edge30" class="edge">
<title>gg&#45;&gt;rq</title>
<path fill="none" stroke="black" d="M264.6,-1296.05C266.75,-1288.14 269.35,-1278.54 271.76,-1269.69"/>
<polygon fill="black" stroke="black" points="275.2,-1270.36 274.44,-1259.79 268.45,-1268.52 275.2,-1270.36"/>
</g>
<!-- gj -->
<g id="node16" class="node">
<title>gj</title>
<ellipse fill="none" stroke="red" cx="1577" cy="-594" rx="27" ry="18"/>
<text text-anchor="middle" x="1577" y="-590.3" font-family="Times,serif" font-size="14.00">gj</text>
</g>
<!-- gj&#45;&gt;br -->
<g id="edge33" class="edge">
<title>gj&#45;&gt;br</title>
<path fill="none" stroke="black" d="M1585.81,-576.76C1590.42,-568.28 1596.16,-557.71 1601.32,-548.2"/>
<polygon fill="black" stroke="black" points="1604.54,-549.61 1606.23,-539.15 1598.39,-546.27 1604.54,-549.61"/>
</g>
<!-- gj&#45;&gt;lz -->
<g id="edge32" class="edge">
<title>gj&#45;&gt;lz</title>
<path fill="none" stroke="black" d="M1578.69,-612.23C1582.33,-649.32 1590.93,-736.98 1595.32,-781.71"/>
<polygon fill="black" stroke="black" points="1591.86,-782.24 1596.32,-791.85 1598.82,-781.56 1591.86,-782.24"/>
</g>
<!-- gl -->
<g id="node17" class="node">
<title>gl</title>
<ellipse fill="none" stroke="red" cx="788" cy="-738" rx="27" ry="18"/>
<text text-anchor="middle" x="788" y="-734.3" font-family="Times,serif" font-size="14.00">gl</text>
</g>
<!-- qd -->
<g id="node35" class="node">
<title>qd</title>
<ellipse fill="none" stroke="red" cx="788" cy="-666" rx="27" ry="18"/>
<text text-anchor="middle" x="788" y="-662.3" font-family="Times,serif" font-size="14.00">qd</text>
</g>
<!-- gl&#45;&gt;qd -->
<g id="edge34" class="edge">
<title>gl&#45;&gt;qd</title>
<path fill="none" stroke="black" d="M788,-719.7C788,-711.98 788,-702.71 788,-694.11"/>
<polygon fill="black" stroke="black" points="791.5,-694.1 788,-684.1 784.5,-694.1 791.5,-694.1"/>
</g>
<!-- gr&#45;&gt;fs -->
<g id="edge36" class="edge">
<title>gr&#45;&gt;fs</title>
<path fill="none" stroke="black" d="M217.58,-1152.43C208.15,-1128.09 190.46,-1082.4 179.23,-1053.4"/>
<polygon fill="black" stroke="black" points="182.42,-1051.96 175.55,-1043.9 175.89,-1054.49 182.42,-1051.96"/>
</g>
<!-- px -->
<g id="node34" class="node">
<title>px</title>
<ellipse fill="none" stroke="red" cx="74" cy="-738" rx="27" ry="18"/>
<text text-anchor="middle" x="74" y="-734.3" font-family="Times,serif" font-size="14.00">px</text>
</g>
<!-- gr&#45;&gt;px -->
<g id="edge37" class="edge">
<title>gr&#45;&gt;px</title>
<path fill="none" stroke="black" d="M197.43,-1166.57C161.5,-1162.07 96.98,-1149.62 54,-1116 17.56,-1087.49 0,-1073.27 0,-1027 0,-1027 0,-1027 0,-881 0,-834.59 31.47,-788.33 53.36,-761.75"/>
<polygon fill="black" stroke="black" points="56.27,-763.73 60.08,-753.84 50.94,-759.2 56.27,-763.73"/>
</g>
<!-- gr&#45;&gt;sg -->
<g id="edge40" class="edge">
<title>gr&#45;&gt;sg</title>
<path fill="none" stroke="black" d="M238.09,-1154.15C251.49,-1143.01 271.7,-1127.74 288.4,-1116.09"/>
<polygon fill="black" stroke="black" points="290.49,-1118.9 296.76,-1110.37 286.53,-1113.13 290.49,-1118.9"/>
</g>
<!-- st -->
<g id="node46" class="node">
<title>st</title>
<ellipse fill="none" stroke="blue" cx="484" cy="-162" rx="27" ry="18"/>
<text text-anchor="middle" x="484" y="-158.3" font-family="Times,serif" font-size="14.00">st</text>
</g>
<!-- gr&#45;&gt;st -->
<g id="edge38" class="edge">
<title>gr&#45;&gt;st</title>
<path fill="none" stroke="black" d="M250.27,-1165.54C279.8,-1160.21 327.01,-1147.13 353,-1116 378.92,-1084.95 372,-1067.45 372,-1027 372,-1027 372,-1027 372,-305 372,-250.53 423.44,-204.67 456.6,-180.77"/>
<polygon fill="black" stroke="black" points="458.81,-183.49 465,-174.89 454.8,-177.75 458.81,-183.49"/>
</g>
<!-- th -->
<g id="node47" class="node">
<title>th</title>
<ellipse fill="none" stroke="red" cx="262" cy="-594" rx="27" ry="18"/>
<text text-anchor="middle" x="262" y="-590.3" font-family="Times,serif" font-size="14.00">th</text>
</g>
<!-- gr&#45;&gt;th -->
<g id="edge39" class="edge">
<title>gr&#45;&gt;th</title>
<path fill="none" stroke="black" d="M231.51,-1152.34C242.58,-1126.2 262,-1073.7 262,-1027 262,-1027 262,-1027 262,-737 262,-697 262,-650.65 262,-622.08"/>
<polygon fill="black" stroke="black" points="265.5,-622.05 262,-612.05 258.5,-622.05 265.5,-622.05"/>
</g>
<!-- gr&#45;&gt;tp -->
<g id="edge35" class="edge">
<title>gr&#45;&gt;tp</title>
<path fill="none" stroke="black" d="M209.15,-1154.95C187.6,-1133.46 148.55,-1090.03 133,-1044 126.29,-1024.14 126.13,-1000.35 127.46,-982.36"/>
<polygon fill="black" stroke="black" points="130.96,-982.54 128.41,-972.25 123.99,-981.88 130.96,-982.54"/>
</g>
<!-- gt&#45;&gt;db -->
<g id="edge42" class="edge">
<title>gt&#45;&gt;db</title>
<path fill="none" stroke="black" d="M1089.55,-1081.81C1101.22,-1070.99 1118.63,-1056.4 1133.43,-1044.99"/>
<polygon fill="black" stroke="black" points="1135.9,-1047.51 1141.78,-1038.69 1131.69,-1041.92 1135.9,-1047.51"/>
</g>
<!-- gt&#45;&gt;rt -->
<g id="edge41" class="edge">
<title>gt&#45;&gt;rt</title>
<path fill="none" stroke="black" d="M1069.43,-1080.71C1058.05,-1056.23 1036.44,-1009.74 1022.93,-980.67"/>
<polygon fill="black" stroke="black" points="1026.07,-979.13 1018.69,-971.54 1019.73,-982.08 1026.07,-979.13"/>
</g>
<!-- hf&#45;&gt;db -->
<g id="edge43" class="edge">
<title>hf&#45;&gt;db</title>
<path fill="none" stroke="black" d="M1341.11,-251.7C1351.6,-277.89 1370,-330.46 1370,-377 1370,-883 1370,-883 1370,-883 1370,-965.94 1256.01,-1003.82 1196.39,-1017.96"/>
<polygon fill="black" stroke="black" points="1195.6,-1014.55 1186.63,-1020.18 1197.15,-1021.38 1195.6,-1014.55"/>
</g>
<!-- hh&#45;&gt;lv -->
<g id="edge44" class="edge">
<title>hh&#45;&gt;lv</title>
<path fill="none" stroke="black" d="M1272.17,-154.29C1225.75,-141.74 1125.77,-114.72 1072.71,-100.38"/>
<polygon fill="black" stroke="black" points="1073.33,-96.92 1062.76,-97.69 1071.5,-103.68 1073.33,-96.92"/>
</g>
<!-- hx -->
<g id="node22" class="node">
<title>hx</title>
<ellipse fill="none" stroke="red" cx="74" cy="-810" rx="27" ry="18"/>
<text text-anchor="middle" x="74" y="-806.3" font-family="Times,serif" font-size="14.00">hx</text>
</g>
<!-- hx&#45;&gt;gr -->
<g id="edge46" class="edge">
<title>hx&#45;&gt;gr</title>
<path fill="none" stroke="black" d="M66.89,-827.7C56.4,-853.89 38,-906.46 38,-953 38,-1027 38,-1027 38,-1027 38,-1102.38 135.71,-1143.08 189.49,-1159.78"/>
<polygon fill="black" stroke="black" points="188.72,-1163.2 199.3,-1162.71 190.72,-1156.5 188.72,-1163.2"/>
</g>
<!-- hx&#45;&gt;px -->
<g id="edge45" class="edge">
<title>hx&#45;&gt;px</title>
<path fill="none" stroke="black" d="M74,-791.7C74,-783.98 74,-774.71 74,-766.11"/>
<polygon fill="black" stroke="black" points="77.5,-766.1 74,-756.1 70.5,-766.1 77.5,-766.1"/>
</g>
<!-- jp -->
<g id="node23" class="node">
<title>jp</title>
<ellipse fill="none" stroke="red" cx="693" cy="-378" rx="27" ry="18"/>
<text text-anchor="middle" x="693" y="-374.3" font-family="Times,serif" font-size="14.00">jp</text>
</g>
<!-- jp&#45;&gt;cf -->
<g id="edge47" class="edge">
<title>jp&#45;&gt;cf</title>
<path fill="none" stroke="black" d="M701.81,-360.76C706.42,-352.28 712.16,-341.71 717.32,-332.2"/>
<polygon fill="black" stroke="black" points="720.54,-333.61 722.23,-323.15 714.39,-330.27 720.54,-333.61"/>
</g>
<!-- jp&#45;&gt;vc -->
<g id="edge48" class="edge">
<title>jp&#45;&gt;vc</title>
<path fill="none" stroke="black" d="M692.65,-359.89C692.45,-341.94 692.62,-312.92 695,-288 695.81,-279.51 697.19,-270.32 698.63,-262.02"/>
<polygon fill="black" stroke="black" points="702.09,-262.57 700.44,-252.1 695.2,-261.31 702.09,-262.57"/>
</g>
<!-- jq -->
<g id="node24" class="node">
<title>jq</title>
<ellipse fill="none" stroke="red" cx="522" cy="-1026" rx="27" ry="18"/>
<text text-anchor="middle" x="522" y="-1022.3" font-family="Times,serif" font-size="14.00">jq</text>
</g>
<!-- jq&#45;&gt;fk -->
<g id="edge50" class="edge">
<title>jq&#45;&gt;fk</title>
<path fill="none" stroke="black" d="M522,-1007.7C522,-999.98 522,-990.71 522,-982.11"/>
<polygon fill="black" stroke="black" points="525.5,-982.1 522,-972.1 518.5,-982.1 525.5,-982.1"/>
</g>
<!-- jq&#45;&gt;vc -->
<g id="edge49" class="edge">
<title>jq&#45;&gt;vc</title>
<path fill="none" stroke="black" d="M508.08,-1010.16C486.65,-985.68 448,-934.43 448,-883 448,-883 448,-883 448,-377 448,-332.47 459.11,-315.67 494,-288 544.43,-248.01 621.3,-237.8 666.71,-235.43"/>
<polygon fill="black" stroke="black" points="666.88,-238.92 676.73,-235.01 666.59,-231.93 666.88,-238.92"/>
</g>
<!-- kc -->
<g id="node25" class="node">
<title>kc</title>
<ellipse fill="none" stroke="red" cx="1277" cy="-378" rx="27" ry="18"/>
<text text-anchor="middle" x="1277" y="-374.3" font-family="Times,serif" font-size="14.00">kc</text>
</g>
<!-- kc&#45;&gt;cq -->
<g id="edge51" class="edge">
<title>kc&#45;&gt;cq</title>
<path fill="none" stroke="black" d="M1285.81,-360.76C1290.42,-352.28 1296.16,-341.71 1301.32,-332.2"/>
<polygon fill="black" stroke="black" points="1304.54,-333.61 1306.23,-323.15 1298.39,-330.27 1304.54,-333.61"/>
</g>
<!-- kc&#45;&gt;db -->
<g id="edge52" class="edge">
<title>kc&#45;&gt;db</title>
<path fill="none" stroke="black" d="M1280.36,-395.97C1285.31,-422.52 1294,-475.56 1294,-521 1294,-883 1294,-883 1294,-883 1294,-942.73 1230.55,-987.69 1191.3,-1009.79"/>
<polygon fill="black" stroke="black" points="1189.47,-1006.8 1182.37,-1014.66 1192.82,-1012.95 1189.47,-1006.8"/>
</g>
<!-- kz -->
<g id="node26" class="node">
<title>kz</title>
<ellipse fill="none" stroke="red" cx="579" cy="-810" rx="27" ry="18"/>
<text text-anchor="middle" x="579" y="-806.3" font-family="Times,serif" font-size="14.00">kz</text>
</g>
<!-- kz&#45;&gt;gl -->
<g id="edge53" class="edge">
<title>kz&#45;&gt;gl</title>
<path fill="none" stroke="black" d="M602.57,-801.11C639.73,-788.66 712.07,-764.43 754.58,-750.19"/>
<polygon fill="black" stroke="black" points="755.83,-753.47 764.2,-746.97 753.6,-746.83 755.83,-753.47"/>
</g>
<!-- kz&#45;&gt;vc -->
<g id="edge54" class="edge">
<title>kz&#45;&gt;vc</title>
<path fill="none" stroke="black" d="M575.64,-792.03C570.69,-765.48 562,-712.44 562,-667 562,-667 562,-667 562,-377 562,-314.77 631.04,-270.28 672.84,-249.05"/>
<polygon fill="black" stroke="black" points="674.38,-252.19 681.81,-244.64 671.29,-245.91 674.38,-252.19"/>
</g>
<!-- ld -->
<g id="node27" class="node">
<title>ld</title>
<ellipse fill="none" stroke="red" cx="93" cy="-882" rx="27" ry="18"/>
<text text-anchor="middle" x="93" y="-878.3" font-family="Times,serif" font-size="14.00">ld</text>
</g>
<!-- ld&#45;&gt;gr -->
<g id="edge56" class="edge">
<title>ld&#45;&gt;gr</title>
<path fill="none" stroke="black" d="M91.75,-900.23C90.83,-918.28 90.41,-947.39 95,-972 107.48,-1038.89 105.43,-1062.13 147,-1116 159.35,-1132 177.91,-1144.98 193.71,-1154.09"/>
<polygon fill="black" stroke="black" points="192.18,-1157.24 202.63,-1159 195.56,-1151.11 192.18,-1157.24"/>
</g>
<!-- ld&#45;&gt;hx -->
<g id="edge55" class="edge">
<title>ld&#45;&gt;hx</title>
<path fill="none" stroke="black" d="M88.4,-864.05C86.25,-856.14 83.65,-846.54 81.24,-837.69"/>
<polygon fill="black" stroke="black" points="84.55,-836.52 78.56,-827.79 77.8,-838.36 84.55,-836.52"/>
</g>
<!-- rx -->
<g id="node44" class="node">
<title>rx</title>
<ellipse fill="none" stroke="red" cx="1038" cy="-18" rx="27" ry="18"/>
<text text-anchor="middle" x="1038" y="-14.3" font-family="Times,serif" font-size="14.00">rx</text>
</g>
<!-- lv&#45;&gt;rx -->
<g id="edge57" class="edge">
<title>lv&#45;&gt;rx</title>
<path fill="none" stroke="black" d="M1038,-71.7C1038,-63.98 1038,-54.71 1038,-46.11"/>
<polygon fill="black" stroke="black" points="1041.5,-46.1 1038,-36.1 1034.5,-46.1 1041.5,-46.1"/>
</g>
<!-- lz&#45;&gt;dk -->
<g id="edge59" class="edge">
<title>lz&#45;&gt;dk</title>
<path fill="none" stroke="black" d="M1577.2,-798.22C1554.54,-786.47 1518.11,-767.57 1492.5,-754.3"/>
<polygon fill="black" stroke="black" points="1494.09,-751.18 1483.6,-749.68 1490.87,-757.39 1494.09,-751.18"/>
</g>
<!-- lz&#45;&gt;dt -->
<g id="edge58" class="edge">
<title>lz&#45;&gt;dt</title>
<path fill="none" stroke="black" d="M1624.96,-808.28C1661.38,-805.76 1725.68,-795.57 1760,-756 1810.93,-697.27 1808.96,-598.03 1804.48,-550.28"/>
<polygon fill="black" stroke="black" points="1807.93,-549.68 1803.41,-540.1 1800.97,-550.41 1807.93,-549.68"/>
</g>
<!-- lz&#45;&gt;qf -->
<g id="edge60" class="edge">
<title>lz&#45;&gt;qf</title>
<path fill="none" stroke="black" d="M1599.8,-828.31C1599.43,-876.41 1586.86,-1012 1577.69,-1070.06"/>
<polygon fill="black" stroke="black" points="1574.23,-1069.52 1576.02,-1079.97 1581.14,-1070.69 1574.23,-1069.52"/>
</g>
<!-- ms -->
<g id="node30" class="node">
<title>ms</title>
<ellipse fill="none" stroke="red" cx="1672" cy="-378" rx="27" ry="18"/>
<text text-anchor="middle" x="1672" y="-374.3" font-family="Times,serif" font-size="14.00">ms</text>
</g>
<!-- ms&#45;&gt;bd -->
<g id="edge62" class="edge">
<title>ms&#45;&gt;bd</title>
<path fill="none" stroke="black" d="M1672,-359.7C1672,-351.98 1672,-342.71 1672,-334.11"/>
<polygon fill="black" stroke="black" points="1675.5,-334.1 1672,-324.1 1668.5,-334.1 1675.5,-334.1"/>
</g>
<!-- ms&#45;&gt;lz -->
<g id="edge61" class="edge">
<title>ms&#45;&gt;lz</title>
<path fill="none" stroke="black" d="M1679.11,-395.7C1689.6,-421.89 1708,-474.46 1708,-521 1708,-667 1708,-667 1708,-667 1708,-720.82 1658.01,-766.61 1625.43,-790.74"/>
<polygon fill="black" stroke="black" points="1623.24,-788 1617.16,-796.67 1627.32,-793.68 1623.24,-788"/>
</g>
<!-- vn -->
<g id="node53" class="node">
<title>vn</title>
<ellipse fill="none" stroke="red" cx="1201" cy="-522" rx="27" ry="18"/>
<text text-anchor="middle" x="1201" y="-518.3" font-family="Times,serif" font-size="14.00">vn</text>
</g>
<!-- np&#45;&gt;vn -->
<g id="edge63" class="edge">
<title>np&#45;&gt;vn</title>
<path fill="none" stroke="black" d="M1186.6,-576.05C1188.75,-568.14 1191.35,-558.54 1193.76,-549.69"/>
<polygon fill="black" stroke="black" points="1197.2,-550.36 1196.44,-539.79 1190.45,-548.52 1197.2,-550.36"/>
</g>
<!-- xv -->
<g id="node56" class="node">
<title>xv</title>
<ellipse fill="none" stroke="red" cx="1125" cy="-810" rx="27" ry="18"/>
<text text-anchor="middle" x="1125" y="-806.3" font-family="Times,serif" font-size="14.00">xv</text>
</g>
<!-- ns&#45;&gt;xv -->
<g id="edge64" class="edge">
<title>ns&#45;&gt;xv</title>
<path fill="none" stroke="black" d="M1095.81,-864.76C1100.42,-856.28 1106.16,-845.71 1111.32,-836.2"/>
<polygon fill="black" stroke="black" points="1114.54,-837.61 1116.23,-827.15 1108.39,-834.27 1114.54,-837.61"/>
</g>
<!-- pc&#45;&gt;jq -->
<g id="edge65" class="edge">
<title>pc&#45;&gt;jq</title>
<path fill="none" stroke="black" d="M883.31,-1092.35C816.15,-1080.21 635.25,-1047.49 557.89,-1033.49"/>
<polygon fill="black" stroke="black" points="558.15,-1029.98 547.68,-1031.65 556.9,-1036.87 558.15,-1029.98"/>
</g>
<!-- pc&#45;&gt;vc -->
<g id="edge66" class="edge">
<title>pc&#45;&gt;vc</title>
<path fill="none" stroke="black" d="M903.34,-1080.39C900,-1053.87 900,-1000.36 900,-955 900,-955 900,-955 900,-377 900,-297.93 795.66,-259.41 739.13,-243.82"/>
<polygon fill="black" stroke="black" points="739.73,-240.36 729.17,-241.17 737.93,-247.12 739.73,-240.36"/>
</g>
<!-- qq -->
<g id="node39" class="node">
<title>qq</title>
<ellipse fill="none" stroke="red" cx="207" cy="-666" rx="27" ry="18"/>
<text text-anchor="middle" x="207" y="-662.3" font-family="Times,serif" font-size="14.00">qq</text>
</g>
<!-- px&#45;&gt;qq -->
<g id="edge67" class="edge">
<title>px&#45;&gt;qq</title>
<path fill="none" stroke="black" d="M94.49,-726.22C116.59,-714.59 151.98,-695.96 177.16,-682.7"/>
<polygon fill="black" stroke="black" points="179.05,-685.67 186.27,-677.91 175.79,-679.47 179.05,-685.67"/>
</g>
<!-- qd&#45;&gt;dg -->
<g id="edge68" class="edge">
<title>qd&#45;&gt;dg</title>
<path fill="none" stroke="black" d="M783.4,-648.05C781.25,-640.14 778.65,-630.54 776.24,-621.69"/>
<polygon fill="black" stroke="black" points="779.55,-620.52 773.56,-611.79 772.8,-622.36 779.55,-620.52"/>
</g>
<!-- qf&#45;&gt;lz -->
<g id="edge69" class="edge">
<title>qf&#45;&gt;lz</title>
<path fill="none" stroke="black" d="M1569.2,-1079.97C1569.52,-1032.08 1582.13,-895.98 1591.32,-837.85"/>
<polygon fill="black" stroke="black" points="1594.78,-838.39 1593,-827.94 1587.88,-837.22 1594.78,-838.39"/>
</g>
<!-- vr -->
<g id="node54" class="node">
<title>vr</title>
<ellipse fill="none" stroke="red" cx="1539" cy="-1026" rx="27" ry="18"/>
<text text-anchor="middle" x="1539" y="-1022.3" font-family="Times,serif" font-size="14.00">vr</text>
</g>
<!-- qf&#45;&gt;vr -->
<g id="edge70" class="edge">
<title>qf&#45;&gt;vr</title>
<path fill="none" stroke="black" d="M1563.42,-1080.41C1559.63,-1072.13 1554.97,-1061.92 1550.73,-1052.66"/>
<polygon fill="black" stroke="black" points="1553.87,-1051.11 1546.53,-1043.47 1547.5,-1054.02 1553.87,-1051.11"/>
</g>
<!-- qh&#45;&gt;lz -->
<g id="edge72" class="edge">
<title>qh&#45;&gt;lz</title>
<path fill="none" stroke="black" d="M1656.36,-467.97C1661.31,-494.52 1670,-547.56 1670,-593 1670,-667 1670,-667 1670,-667 1670,-713.14 1639.38,-759.49 1618.08,-786.15"/>
<polygon fill="black" stroke="black" points="1615.2,-784.15 1611.54,-794.09 1620.6,-788.6 1615.2,-784.15"/>
</g>
<!-- qh&#45;&gt;ms -->
<g id="edge71" class="edge">
<title>qh&#45;&gt;ms</title>
<path fill="none" stroke="black" d="M1657.6,-432.05C1659.75,-424.14 1662.35,-414.54 1664.76,-405.69"/>
<polygon fill="black" stroke="black" points="1668.2,-406.36 1667.44,-395.79 1661.45,-404.52 1668.2,-406.36"/>
</g>
<!-- qm -->
<g id="node38" class="node">
<title>qm</title>
<ellipse fill="none" stroke="red" cx="1163" cy="-738" rx="27" ry="18"/>
<text text-anchor="middle" x="1163" y="-734.3" font-family="Times,serif" font-size="14.00">qm</text>
</g>
<!-- qm&#45;&gt;db -->
<g id="edge73" class="edge">
<title>qm&#45;&gt;db</title>
<path fill="none" stroke="black" d="M1163.01,-756.25C1163.02,-794.88 1162.93,-891.3 1162,-972 1161.9,-980.32 1161.75,-989.37 1161.59,-997.6"/>
<polygon fill="black" stroke="black" points="1158.09,-997.75 1161.39,-1007.82 1165.09,-997.89 1158.09,-997.75"/>
</g>
<!-- zf -->
<g id="node58" class="node">
<title>zf</title>
<ellipse fill="none" stroke="red" cx="1182" cy="-666" rx="27" ry="18"/>
<text text-anchor="middle" x="1182" y="-662.3" font-family="Times,serif" font-size="14.00">zf</text>
</g>
<!-- qm&#45;&gt;zf -->
<g id="edge74" class="edge">
<title>qm&#45;&gt;zf</title>
<path fill="none" stroke="black" d="M1167.6,-720.05C1169.75,-712.14 1172.35,-702.54 1174.76,-693.69"/>
<polygon fill="black" stroke="black" points="1178.2,-694.36 1177.44,-683.79 1171.45,-692.52 1178.2,-694.36"/>
</g>
<!-- qq&#45;&gt;gr -->
<g id="edge76" class="edge">
<title>qq&#45;&gt;gr</title>
<path fill="none" stroke="black" d="M210.36,-683.97C215.31,-710.52 224,-763.56 224,-809 224,-1027 224,-1027 224,-1027 224,-1067 224,-1113.35 224,-1141.92"/>
<polygon fill="black" stroke="black" points="220.5,-1141.95 224,-1151.95 227.5,-1141.95 220.5,-1141.95"/>
</g>
<!-- qq&#45;&gt;th -->
<g id="edge75" class="edge">
<title>qq&#45;&gt;th</title>
<path fill="none" stroke="black" d="M218.93,-649.81C226.21,-640.55 235.66,-628.52 243.85,-618.09"/>
<polygon fill="black" stroke="black" points="246.66,-620.18 250.09,-610.16 241.16,-615.86 246.66,-620.18"/>
</g>
<!-- rj -->
<g id="node40" class="node">
<title>rj</title>
<ellipse fill="none" stroke="red" cx="674" cy="-450" rx="27" ry="18"/>
<text text-anchor="middle" x="674" y="-446.3" font-family="Times,serif" font-size="14.00">rj</text>
</g>
<!-- rj&#45;&gt;jp -->
<g id="edge77" class="edge">
<title>rj&#45;&gt;jp</title>
<path fill="none" stroke="black" d="M678.6,-432.05C680.75,-424.14 683.35,-414.54 685.76,-405.69"/>
<polygon fill="black" stroke="black" points="689.2,-406.36 688.44,-395.79 682.45,-404.52 689.2,-406.36"/>
</g>
<!-- rj&#45;&gt;vc -->
<g id="edge78" class="edge">
<title>rj&#45;&gt;vc</title>
<path fill="none" stroke="black" d="M667.11,-432.14C663.3,-421.88 658.94,-408.41 657,-396 654.53,-380.19 654.14,-375.74 657,-360 663.52,-324.15 679.74,-285.22 691.3,-260.49"/>
<polygon fill="black" stroke="black" points="694.48,-261.97 695.62,-251.43 688.16,-258.95 694.48,-261.97"/>
</g>
<!-- rq&#45;&gt;gr -->
<g id="edge79" class="edge">
<title>rq&#45;&gt;gr</title>
<path fill="none" stroke="black" d="M267.07,-1225.81C259.79,-1216.55 250.34,-1204.52 242.15,-1194.09"/>
<polygon fill="black" stroke="black" points="244.84,-1191.86 235.91,-1186.16 239.34,-1196.18 244.84,-1191.86"/>
</g>
<!-- rt&#45;&gt;ns -->
<g id="edge80" class="edge">
<title>rt&#45;&gt;ns</title>
<path fill="none" stroke="black" d="M1026.38,-938.83C1037.2,-928.87 1051.86,-915.37 1064.05,-904.14"/>
<polygon fill="black" stroke="black" points="1066.66,-906.49 1071.64,-897.14 1061.92,-901.34 1066.66,-906.49"/>
</g>
<!-- rv&#45;&gt;rj -->
<g id="edge81" class="edge">
<title>rv&#45;&gt;rj</title>
<path fill="none" stroke="black" d="M674,-503.7C674,-495.98 674,-486.71 674,-478.11"/>
<polygon fill="black" stroke="black" points="677.5,-478.1 674,-468.1 670.5,-478.1 677.5,-478.1"/>
</g>
<!-- rv&#45;&gt;vc -->
<g id="edge82" class="edge">
<title>rv&#45;&gt;vc</title>
<path fill="none" stroke="black" d="M660.25,-506.07C652.04,-496.1 642.38,-482.25 638,-468 633.3,-452.71 636.68,-447.95 638,-432 643.35,-367.34 635.68,-347.31 662,-288 666.96,-276.83 674.83,-265.97 682.43,-257.03"/>
<polygon fill="black" stroke="black" points="685.19,-259.19 689.24,-249.4 679.97,-254.53 685.19,-259.19"/>
</g>
<!-- sg&#45;&gt;fs -->
<g id="edge83" class="edge">
<title>sg&#45;&gt;fs</title>
<path fill="none" stroke="black" d="M295.48,-1086.82C270.27,-1074.9 228.32,-1055.06 199.7,-1041.52"/>
<polygon fill="black" stroke="black" points="201.08,-1038.3 190.55,-1037.19 198.09,-1044.63 201.08,-1038.3"/>
</g>
<!-- sg&#45;&gt;gr -->
<g id="edge84" class="edge">
<title>sg&#45;&gt;gr</title>
<path fill="none" stroke="black" d="M303.18,-1113.63C289.74,-1124.81 269.31,-1140.26 252.48,-1152"/>
<polygon fill="black" stroke="black" points="250.34,-1149.22 244.06,-1157.75 254.29,-1155 250.34,-1149.22"/>
</g>
<!-- st&#45;&gt;lv -->
<g id="edge85" class="edge">
<title>st&#45;&gt;lv</title>
<path fill="none" stroke="black" d="M510.35,-157.67C600.57,-146.27 897.29,-108.78 1001.46,-95.62"/>
<polygon fill="black" stroke="black" points="1002.01,-99.08 1011.49,-94.35 1001.13,-92.13 1002.01,-99.08"/>
</g>
<!-- th&#45;&gt;bc -->
<g id="edge86" class="edge">
<title>th&#45;&gt;bc</title>
<path fill="none" stroke="black" d="M284.48,-604.08C325.88,-622.47 410,-668.28 410,-737 410,-1315 410,-1315 410,-1315 410,-1361.88 377.4,-1408.26 354.91,-1434.69"/>
<polygon fill="black" stroke="black" points="352.26,-1432.4 348.3,-1442.23 357.52,-1437.02 352.26,-1432.4"/>
</g>
<!-- tn -->
<g id="node48" class="node">
<title>tn</title>
<ellipse fill="none" stroke="blue" cx="1002" cy="-162" rx="27" ry="18"/>
<text text-anchor="middle" x="1002" y="-158.3" font-family="Times,serif" font-size="14.00">tn</text>
</g>
<!-- tn&#45;&gt;lv -->
<g id="edge87" class="edge">
<title>tn&#45;&gt;lv</title>
<path fill="none" stroke="black" d="M1010.35,-144.76C1014.71,-136.28 1020.15,-125.71 1025.04,-116.2"/>
<polygon fill="black" stroke="black" points="1028.23,-117.64 1029.7,-107.15 1022.01,-114.44 1028.23,-117.64"/>
</g>
<!-- tp&#45;&gt;ld -->
<g id="edge88" class="edge">
<title>tp&#45;&gt;ld</title>
<path fill="none" stroke="black" d="M122.19,-936.76C117.58,-928.28 111.84,-917.71 106.68,-908.2"/>
<polygon fill="black" stroke="black" points="109.61,-906.27 101.77,-899.15 103.46,-909.61 109.61,-906.27"/>
</g>
<!-- tv&#45;&gt;kz -->
<g id="edge89" class="edge">
<title>tv&#45;&gt;kz</title>
<path fill="none" stroke="black" d="M549.81,-864.76C554.42,-856.28 560.16,-845.71 565.32,-836.2"/>
<polygon fill="black" stroke="black" points="568.54,-837.61 570.23,-827.15 562.39,-834.27 568.54,-837.61"/>
</g>
<!-- vc&#45;&gt;dg -->
<g id="edge95" class="edge">
<title>vc&#45;&gt;dg</title>
<path fill="none" stroke="black" d="M723.54,-246.43C737.79,-255.79 756.4,-270.36 767,-288 787.82,-322.67 786,-336.55 786,-377 786,-451 786,-451 786,-451 786,-491.29 779.17,-537.56 774.17,-566.04"/>
<polygon fill="black" stroke="black" points="770.7,-565.57 772.36,-576.03 777.58,-566.81 770.7,-565.57"/>
</g>
<!-- vc&#45;&gt;gl -->
<g id="edge90" class="edge">
<title>vc&#45;&gt;gl</title>
<path fill="none" stroke="black" d="M728.46,-241.89C752.64,-249.72 789.48,-264.57 814,-288 846.5,-319.05 862,-332.06 862,-377 862,-595 862,-595 862,-595 862,-641.41 830.53,-687.67 808.64,-714.25"/>
<polygon fill="black" stroke="black" points="805.73,-712.27 801.92,-722.16 811.06,-716.8 805.73,-712.27"/>
</g>
<!-- vc&#45;&gt;pc -->
<g id="edge92" class="edge">
<title>vc&#45;&gt;pc</title>
<path fill="none" stroke="black" d="M729.96,-239.18C787.18,-250.76 918,-288.46 918,-377 918,-955 918,-955 918,-955 918,-995.22 918,-1041.85 915.67,-1070.39"/>
<polygon fill="black" stroke="black" points="912.18,-1070.08 914.66,-1080.39 919.15,-1070.79 912.18,-1070.08"/>
</g>
<!-- vc&#45;&gt;qd -->
<g id="edge93" class="edge">
<title>vc&#45;&gt;qd</title>
<path fill="none" stroke="black" d="M726.37,-244.35C745.08,-253.17 771.3,-268.02 788,-288 815.36,-320.74 824,-334.33 824,-377 824,-523 824,-523 824,-523 824,-564.45 809.41,-610.68 798.8,-638.8"/>
<polygon fill="black" stroke="black" points="795.47,-637.71 795.11,-648.3 802,-640.25 795.47,-637.71"/>
</g>
<!-- vc&#45;&gt;tn -->
<g id="edge94" class="edge">
<title>vc&#45;&gt;tn</title>
<path fill="none" stroke="black" d="M729.15,-227.09C782.34,-214.6 906.33,-185.47 967.13,-171.19"/>
<polygon fill="black" stroke="black" points="968.09,-174.56 977.02,-168.87 966.49,-167.75 968.09,-174.56"/>
</g>
<!-- vc&#45;&gt;tv -->
<g id="edge91" class="edge">
<title>vc&#45;&gt;tv</title>
<path fill="none" stroke="black" d="M678.58,-240.22C650.48,-247.08 605.21,-261.49 575,-288 540.73,-318.07 524,-331.41 524,-377 524,-739 524,-739 524,-739 524,-779.29 530.83,-825.56 535.83,-854.04"/>
<polygon fill="black" stroke="black" points="532.42,-854.81 537.64,-864.03 539.3,-853.57 532.42,-854.81"/>
</g>
<!-- vm&#45;&gt;lz -->
<g id="edge96" class="edge">
<title>vm&#45;&gt;lz</title>
<path fill="none" stroke="black" d="M1723.53,-251.84C1731.69,-278.21 1746,-331.02 1746,-377 1746,-667 1746,-667 1746,-667 1746,-730.89 1673.29,-774.98 1629.8,-795.64"/>
<polygon fill="black" stroke="black" points="1628.1,-792.56 1620.48,-799.92 1631.03,-798.93 1628.1,-792.56"/>
</g>
<!-- vn&#45;&gt;db -->
<g id="edge97" class="edge">
<title>vn&#45;&gt;db</title>
<path fill="none" stroke="black" d="M1211.6,-538.84C1227.59,-564.28 1256,-616.36 1256,-665 1256,-883 1256,-883 1256,-883 1256,-933.48 1214.01,-979.61 1185.86,-1004.85"/>
<polygon fill="black" stroke="black" points="1183.23,-1002.5 1177.98,-1011.7 1187.83,-1007.78 1183.23,-1002.5"/>
</g>
<!-- vn&#45;&gt;zj -->
<g id="edge98" class="edge">
<title>vn&#45;&gt;zj</title>
<path fill="none" stroke="black" d="M1201,-503.7C1201,-495.98 1201,-486.71 1201,-478.11"/>
<polygon fill="black" stroke="black" points="1204.5,-478.1 1201,-468.1 1197.5,-478.1 1204.5,-478.1"/>
</g>
<!-- vr&#45;&gt;lz -->
<g id="edge100" class="edge">
<title>vr&#45;&gt;lz</title>
<path fill="none" stroke="black" d="M1542.88,-1007.96C1549.7,-978.45 1564.58,-915.99 1580,-864 1582.62,-855.16 1585.77,-845.59 1588.7,-837.05"/>
<polygon fill="black" stroke="black" points="1592.01,-838.2 1591.99,-827.6 1585.4,-835.9 1592.01,-838.2"/>
</g>
<!-- xz -->
<g id="node57" class="node">
<title>xz</title>
<ellipse fill="none" stroke="red" cx="1501" cy="-954" rx="27" ry="18"/>
<text text-anchor="middle" x="1501" y="-950.3" font-family="Times,serif" font-size="14.00">xz</text>
</g>
<!-- vr&#45;&gt;xz -->
<g id="edge99" class="edge">
<title>vr&#45;&gt;xz</title>
<path fill="none" stroke="black" d="M1530.19,-1008.76C1525.58,-1000.28 1519.84,-989.71 1514.68,-980.2"/>
<polygon fill="black" stroke="black" points="1517.61,-978.27 1509.77,-971.15 1511.46,-981.61 1517.61,-978.27"/>
</g>
<!-- xl&#45;&gt;gj -->
<g id="edge101" class="edge">
<title>xl&#45;&gt;gj</title>
<path fill="none" stroke="black" d="M1547.81,-648.76C1552.42,-640.28 1558.16,-629.71 1563.32,-620.2"/>
<polygon fill="black" stroke="black" points="1566.54,-621.61 1568.23,-611.15 1560.39,-618.27 1566.54,-621.61"/>
</g>
<!-- xl&#45;&gt;lz -->
<g id="edge102" class="edge">
<title>xl&#45;&gt;lz</title>
<path fill="none" stroke="black" d="M1545.84,-683.46C1555.98,-707.88 1575.11,-753.91 1587.17,-782.94"/>
<polygon fill="black" stroke="black" points="1584.05,-784.54 1591.12,-792.43 1590.51,-781.86 1584.05,-784.54"/>
</g>
<!-- xv&#45;&gt;db -->
<g id="edge104" class="edge">
<title>xv&#45;&gt;db</title>
<path fill="none" stroke="black" d="M1127.85,-827.94C1134.07,-864.92 1148.92,-953.2 1156.45,-997.97"/>
<polygon fill="black" stroke="black" points="1153,-998.57 1158.11,-1007.85 1159.91,-997.41 1153,-998.57"/>
</g>
<!-- xv&#45;&gt;qm -->
<g id="edge103" class="edge">
<title>xv&#45;&gt;qm</title>
<path fill="none" stroke="black" d="M1133.81,-792.76C1138.42,-784.28 1144.16,-773.71 1149.32,-764.2"/>
<polygon fill="black" stroke="black" points="1152.54,-765.61 1154.23,-755.15 1146.39,-762.27 1152.54,-765.61"/>
</g>
<!-- xz&#45;&gt;ds -->
<g id="edge105" class="edge">
<title>xz&#45;&gt;ds</title>
<path fill="none" stroke="black" d="M1492.19,-936.76C1487.58,-928.28 1481.84,-917.71 1476.68,-908.2"/>
<polygon fill="black" stroke="black" points="1479.61,-906.27 1471.77,-899.15 1473.46,-909.61 1479.61,-906.27"/>
</g>
<!-- xz&#45;&gt;lz -->
<g id="edge106" class="edge">
<title>xz&#45;&gt;lz</title>
<path fill="none" stroke="black" d="M1506.54,-936.24C1513.19,-917.56 1525.54,-886.95 1542,-864 1550.77,-851.78 1562.63,-840.08 1573.17,-830.79"/>
<polygon fill="black" stroke="black" points="1575.57,-833.34 1580.91,-824.19 1571.03,-828.02 1575.57,-833.34"/>
</g>
<!-- zf&#45;&gt;db -->
<g id="edge107" class="edge">
<title>zf&#45;&gt;db</title>
<path fill="none" stroke="black" d="M1189.11,-683.7C1199.6,-709.89 1218,-762.46 1218,-809 1218,-883 1218,-883 1218,-883 1218,-926.91 1194.23,-973.33 1177.39,-1000.7"/>
<polygon fill="black" stroke="black" points="1174.39,-998.9 1171.99,-1009.22 1180.3,-1002.65 1174.39,-998.9"/>
</g>
<!-- zf&#45;&gt;np -->
<g id="edge108" class="edge">
<title>zf&#45;&gt;np</title>
<path fill="none" stroke="black" d="M1182,-647.7C1182,-639.98 1182,-630.71 1182,-622.11"/>
<polygon fill="black" stroke="black" points="1185.5,-622.1 1182,-612.1 1178.5,-622.1 1185.5,-622.1"/>
</g>
<!-- zj&#45;&gt;kc -->
<g id="edge109" class="edge">
<title>zj&#45;&gt;kc</title>
<path fill="none" stroke="black" d="M1216.38,-434.83C1227.2,-424.87 1241.86,-411.37 1254.05,-400.14"/>
<polygon fill="black" stroke="black" points="1256.66,-402.49 1261.64,-393.14 1251.92,-397.34 1256.66,-402.49"/>
</g>
</g>
</svg>
